# xmcd
#
# Track frame offsets:
#	150
#	14572
#	26490
#	37652
#	54697
#	68565
#	76397
#	93550
#	111055
#	126095
#	139337
#	155662
#	175845
#
# Disc length: 2476 seconds
#
# Revision: 0
# Processed by: cddbd v1.5.2PL0 Copyright (c) Steve Scherf et al.
# Submitted via: EasyCDDAExtractor 12.0.1.1
#
DISCID=a709aa0d
DTITLE=Poacher
DYEAR=1987
DGENRE=Country Rock
TTITLE0=You Are No Angel
TTITLE1=Rhythm Of The Rain
TTITLE2=Look Up To Me
TTITLE3=Broken Hearted Man
TTITLE4=Shot Full Of Love
TTITLE5=The Other End
TTITLE6=When You Were Sweet Sixteen
TTITLE7=The Garden Party
TTITLE8=Darlin'
TTITLE9=Break My Mind
TTITLE10=Another Bottle
TTITLE11=Question Of Trust
TTITLE12=Truck Driving Man
EXTD=
EXTT0=
EXTT1=
EXTT2=
EXTT3=
EXTT4=
EXTT5=
EXTT6=
EXTT7=
EXTT8=
EXTT9=
EXTT10=
EXTT11=
EXTT12=
PLAYORDER=
